<svg width="32" height="32" viewBox="0 0 32 32" fill="none" xmlns="http://www.w3.org/2000/svg">
  <rect width="32" height="32" rx="8" fill="#E8D7C3"/>
  <path d="M16 6C10.477 6 6 10.477 6 16C6 21.523 10.477 26 16 26C21.523 26 26 21.523 26 16C26 10.477 21.523 6 16 6ZM16 10C17.105 10 18 10.895 18 12C18 13.105 17.105 14 16 14C14.895 14 14 13.105 14 12C14 10.895 14.895 10 16 10ZM12 20C10.895 20 10 19.105 10 18C10 16.895 10.895 16 12 16C13.105 16 14 16.895 14 18C14 19.105 13.105 20 12 20ZM20 20C18.895 20 18 19.105 18 18C18 16.895 18.895 16 20 16C21.105 16 22 16.895 22 18C22 19.105 21.105 20 20 20Z" fill="#9F7759"/>
</svg>